PathFileType	4	(X/Y/Z)	Patient4_TMGait_0pt2_03_right_22.trc.trc
DataRate	CameraRate	NumFrames	NumMarkers	Units	OrigDataRate	OrigDataStartFrame	OrigNumFrames
47.781569965870	47.781569965870	5	33	mm	47.781569965870	124	       141
Frame#	Time	Sacral			L.Shoulder			Chest			R.Shoulder			Neck			R.ASIS			L.ASIS			R.Thigh.Superior			R.Thigh.Lateral			R.Thigh.Inferior			R.Patella			L.Thigh.Superior			L.Thigh.Lateral			L.Thigh.Inferior			L.Patella			L.Shank.Superior			L.Shank.Lateral			L.Shank.Inferior			R.Shank.Superior			R.Shank.Lateral			R.Shank.Inferior			R.Heel			R.Midfoot.Superior			R.Midfoot.Lateral			R.Toe			L.Heel			L.Midfoot.Lateral			L.Midfoot.Superior			L.Toe			L.Elbow			L.Wrist			R.Elbow			R.Wrist			
		X1	Y1	Z1	X2	Y2	Z2	X3	Y3	Z3	X4	Y4	Z4	X5	Y5	Z5	X6	Y6	Z6	X7	Y7	Z7	X8	Y8	Z8	X9	Y9	Z9	X10	Y10	Z10	X11	Y11	Z11	X12	Y12	Z12	X13	Y13	Z13	X14	Y14	Z14	X15	Y15	Z15	X16	Y16	Z16	X17	Y17	Z17	X18	Y18	Z18	X19	Y19	Z19	X20	Y20	Z20	X21	Y21	Z21	X22	Y22	Z22	X23	Y23	Z23	X24	Y24	Z24	X25	Y25	Z25	X26	Y26	Z26	X27	Y27	Z27	X28	Y28	Z28	X29	Y29	Z29	X30	Y30	Z30	X31	Y31	Z31	X32	Y32	Z32	X33	Y33	Z33	

124	49.634214285714	846.617674385016	1012.382377763312	417.248362845408	1093.217937025287	1432.911661601452	299.523110367861	1135.790831259350	1359.404045066201	481.868087946039	1008.618736730366	1439.437327935366	622.238712306699	1023.921464170719	1494.200424802343	446.252841355161	1038.038555722905	939.019064225768	587.848235876808	1090.551210086000	960.110516932342	318.785080521874	1102.636375725188	751.144537533214	567.763910506486	1028.481555143364	636.195263797124	626.295500189800	1120.650569466664	590.316756444620	558.517611245091	1135.091959799020	507.418199066095	572.610791156079	1104.243552983211	736.522934544202	344.719767512687	1003.628478364726	622.112577930983	263.375527148234	1074.021410884834	544.793878642111	341.932762856156	1063.736975989473	477.064455043001	349.233467432265	1030.714496053220	408.177606101509	335.495328475743	935.943733978979	303.233239554659	274.828281334996	967.029581377511	187.286082757115	348.524810418835	1115.127195098805	416.953907444399	585.301826959721	1049.828256742373	311.135382608573	650.942771458346	1110.505817287565	217.114633893926	602.703053133693	997.364347345932	43.220270544624	581.100285065147	1165.688336928611	101.843908698151	618.576190093366	1081.174144446896	36.803712906820	654.642131261666	1286.874202029520	56.503810692085	645.561482823147	825.224442703138	38.481778677441	381.813944378815	901.073010808849	35.318335596790	302.662460305398	984.455044965217	95.509624614128	333.024039008934	1113.220580836216	42.335244965430	305.853155749756	1249.016757192504	1159.778942324992	137.131390286028	1489.103919889336	1232.804945661653	189.723308867520	834.025163615453	1129.299415925820	677.728321268060	842.704449110623	865.871187272805	663.420286921583	
125	49.655142857143	848.640843225355	1011.395384002394	421.675359883335	1092.852972878713	1432.884247322345	305.745130881937	1135.875319833470	1359.464118362420	488.053688333379	1008.251539301442	1438.795280601690	628.473082575873	1023.295507749421	1493.743766426389	452.462644821918	1039.834554878438	937.677511673776	592.516805503677	1093.077475384663	960.371803742534	323.713863703988	1104.358212405238	749.232561810627	571.510641311297	1028.893033034346	634.213948547150	628.226571716816	1121.492674618021	588.680931028586	560.720457909803	1134.459550032388	505.482592612583	573.786891609552	1104.640265795079	735.447367952010	348.467594028471	1002.433232431785	622.658919410035	266.061099947814	1071.167464585604	544.083286732828	344.253103806266	1059.964983391512	476.627173511360	351.216914432917	1026.990963878778	408.258871969165	337.072116867716	931.903604220668	303.809866270787	275.883051161867	962.967296734428	187.384484847822	348.985684043488	1114.400951120038	414.809053763458	586.257988920020	1048.505115752278	309.286911464241	651.537002774718	1107.875437649662	215.098099700702	602.432307420246	992.881678650220	43.095531310322	580.361209346644	1161.650232135017	100.597715543018	618.087671910921	1076.353006207751	36.724541890708	654.446174610674	1282.375709922563	54.184979481572	645.621877362665	821.037190484509	38.411963114297	381.822980848989	896.903479997417	35.285271439738	302.731645873661	980.310157913554	95.525009451898	333.043607180558	1109.058935367881	42.278082779456	305.853933717093	1250.177309201246	1161.361788626885	142.297656230600	1488.251256332844	1240.571872111239	194.617593403584	836.663247779447	1126.788005204131	684.459499440453	847.411189552719	863.486392335853	671.344831129668	
126	49.676071428571	850.724582892095	1010.654557850881	426.397640156831	1092.747402402606	1433.046191332358	312.030927578080	1136.169545893396	1359.680280754852	494.315888376589	1008.094325863631	1438.337357032797	634.762709038600	1022.856972347984	1493.468245082338	458.738807195953	1041.862303394042	936.806652051232	597.477988521614	1095.556315447983	960.680359304126	328.836021933189	1106.437248089931	747.928625499870	575.195147020896	1030.176462700531	632.836912686335	630.536330355974	1122.881628289101	587.524256718957	562.953005645821	1134.619825267512	503.871040507310	575.161820522751	1104.848109627503	734.428761251787	352.477920847668	1001.059951816323	623.278042171495	269.015228712851	1068.226756580946	543.469928538021	346.788307266458	1056.211487299584	476.266529793590	353.369331214438	1023.230770654104	408.435201483491	338.819901584954	927.776571907990	304.509760464971	277.119679380872	958.887753426491	187.536451773478	349.499016422764	1114.157753535495	413.020340623455	587.347364756976	1047.553005424273	307.894023955704	652.438563389744	1105.235638281627	213.372860200088	602.266275337135	988.047076730949	43.088172211232	579.823905426642	1157.266911344663	99.619952799136	617.672464044225	1071.278931122147	36.755444652345	654.362280129014	1277.654391718749	52.254482783471	645.632958489723	816.859261328492	38.359316649919	381.843349196367	892.751031620623	35.274038792906	302.830599707705	976.192595636232	95.556109322446	333.069879340600	1104.916638696231	42.198665299611	305.852518034652	1251.090153606638	1162.676490747040	147.603481013421	1487.515027325850	1246.875369850940	199.477388464094	839.144912899199	1124.748170448786	691.461051993026	851.387661377139	861.583012984305	679.880180607326	
127	49.697000000000	852.783107742067	1010.176891570531	431.466312023271	1092.904808941934	1433.373708473430	318.271732153553	1136.667056060310	1360.049170285862	500.548813887011	1008.165603925299	1438.107319137769	640.995974746200	1022.629261601578	1493.386295690400	464.963256843501	1044.063136598887	936.422402147906	602.718481336085	1097.869001494338	961.021480211358	334.124138442212	1108.707562816571	747.187862207812	578.893184877336	1032.076264488658	632.025726449192	633.307917656563	1124.563737251069	586.784960292842	565.325356572830	1135.311293607988	502.584293511842	576.814448765117	1104.779786792169	733.499367838498	356.698793965072	999.434476131661	623.982437760325	272.219292530518	1065.213129453056	542.970162376549	349.478759660316	1052.517925095586	475.990248582410	355.629630512114	1019.463969349289	408.712087939723	340.699276961005	923.574338953158	305.344357920388	278.532060025031	954.803609876255	187.753592249659	350.048465111973	1114.216115916121	411.600110644814	588.635444016158	1046.885028293180	306.895066107590	653.670797533118	1102.650648800649	211.962077256696	602.263925324967	983.140833383004	43.141234139017	579.497577449821	1152.765463422590	98.889939362467	617.357366405464	1066.225008117040	36.838874580387	654.388318340605	1272.945374797288	50.744805364701	645.618461404558	812.690069618169	38.371181406290	381.877289426459	888.615197110730	35.310538310467	302.956461784575	972.109498031089	95.606806330351	333.100552692589	1100.791046884097	42.083035581402	305.847627694252	1251.824287452325	1163.688539328828	153.037837160964	1487.043902544525	1251.647987815634	204.327629864725	841.351721252510	1123.319230186719	698.618055890587	854.550683425289	860.276343047171	688.842820296623	
128	49.717928571429	854.733109283838	1009.943926015640	436.932399883528	1093.275194634502	1433.820945506363	324.371053228599	1137.348053241122	1360.549106307734	506.650336367202	1008.486062777239	1438.115866665128	647.089923198165	1022.613913564846	1493.486761957736	471.039166428935	1046.380032501609	936.483126689696	608.208094051119	1099.908607637970	961.375169710215	339.545872397580	1110.997196614718	746.894297685739	582.703388878892	1034.274604153264	631.676111739639	636.566981270342	1126.272214366699	586.362249586542	567.932591105900	1136.234076760652	501.580733063950	578.789581847537	1104.416275291693	732.693746054111	361.068894052285	997.556416796401	624.772541942037	275.655514309165	1062.216773213497	542.594624556142	352.267930381735	1049.000210786874	475.792949396913	357.942647801506	1015.782668852185	409.080535498096	342.673863829627	919.357718338561	306.328414594355	280.110130446512	950.753650122696	188.050139408756	350.618547128074	1114.356082665875	410.517286615046	590.163948480002	1046.340840856554	306.202152622414	655.209263631564	1100.112094975744	210.854791577367	602.457862649173	978.330069225919	43.217839209494	579.361048632598	1148.282814412746	98.371271773259	617.153887010123	1061.340865266907	36.937131928619	654.509288197242	1268.371520046015	49.629825130698	645.602504128361	808.530301872901	38.519334467171	381.923472217080	884.494482886763	35.433011853202	303.102658603797	968.072190556717	95.685568774843	333.130897947906	1096.676253953235	41.916444009641	305.837589045951	1252.392269011112	1164.337470706992	158.601913312186	1486.911303527101	1254.767177488670	209.189652636293	843.250523229207	1122.550714337125	705.860534219052	856.906332716537	859.599924081161	698.076160046335	
